# Rhino

mtllib tri.mtl
v 0 0 -15
v -0.25 0 -11.25
v -0.5 0 -7.5
v -0.75 0 -3.75
v -1 0 0
v -1.25 0 3.75
v -1.5 0 7.5
v -1.75 0 11.25
v -2 0 15
v 0 0 15
v 2 0 15
v 1.75 0 11.25
v 1.5 0 7.5
v 1.25 0 3.75
v 1 0 0
v 0.75 0 -3.75
v 0.5 0 -7.5
v 0.25 0 -11.25
v -2 0 15
v -2 -1 15
v 0 0 -15
v 0 -1 -15
v -1.75 0 11.25
v -1.5 0 7.5
v -1.25 0 3.75
v -1 0 0
v -0.75 0 -3.75
v -0.5 0 -7.5
v -0.25 0 -11.25
v -0.25 -1 -11.25
v -0.5 -1 -7.5
v -0.75 -1 -3.75
v -1 -1 0
v -1.25 -1 3.75
v -1.5 -1 7.5
v -1.75 -1 11.25
v 2 0 15
v 2 -1 15
v -2 0 15
v -2 -1 15
v 0 0 15
v 0 -1 15
v 0 0 -15
v 0 -1 -15
v 2 0 15
v 2 -1 15
v 0.25 0 -11.25
v 0.5 0 -7.5
v 0.75 0 -3.75
v 1 0 0
v 1.25 0 3.75
v 1.5 0 7.5
v 1.75 0 11.25
v 1.75 -1 11.25
v 1.5 -1 7.5
v 1.25 -1 3.75
v 1 -1 0
v 0.75 -1 -3.75
v 0.5 -1 -7.5
v 0.25 -1 -11.25
v 0 -1 -15
v -0.25 -1 -11.25
v -0.5 -1 -7.5
v -0.75 -1 -3.75
v -1 -1 0
v -1.25 -1 3.75
v -1.5 -1 7.5
v -1.75 -1 11.25
v -2 -1 15
v 0 -1 15
v 2 -1 15
v 1.75 -1 11.25
v 1.5 -1 7.5
v 1.25 -1 3.75
v 1 -1 0
v 0.75 -1 -3.75
v 0.5 -1 -7.5
v 0.25 -1 -11.25
vt 0.0411249063909054 0.633943259716034
vt 0.159616261720657 0.626031875610352
vt 0.278107613325119 0.618120491504669
vt 0.396599024534225 0.610209047794342
vt 0.515090346336365 0.60229766368866
vt 0.633581757545471 0.594386279582977
vt 0.752073109149933 0.586474895477295
vt 0.870564460754395 0.578563511371613
vt 0.989055871963501 0.57065212726593
vt 0.989055871963501 0.633943259716034
vt 0.989055871963501 0.697234392166138
vt 0.870564460754395 0.689323008060455
vt 0.752073109149933 0.681411623954773
vt 0.633581757545471 0.673500180244446
vt 0.515090346336365 0.665588796138763
vt 0.396599024534225 0.657677412033081
vt 0.278107613325119 0.649766027927399
vt 0.159616261720657 0.641854643821716
vt 0.0301807262003422 0
vt 0 0
vt 0.0301807262003422 0.95000958442688
vt 0 0.95000958442688
vt 0.0301807262003422 0.11875119805336
vt 0.0301807262003422 0.23750239610672
vt 0.0301807262003422 0.35625359416008
vt 0.0301807262003422 0.47500479221344
vt 0.0301807262003422 0.593756020069122
vt 0.0301807262003422 0.71250718832016
vt 0.0301807262003422 0.831258416175842
vt 0 0.831258416175842
vt 0 0.71250718832016
vt 0 0.593756020069122
vt 0 0.47500479221344
vt 0 0.35625359416008
vt 0 0.23750239610672
vt 0 0.11875119805336
vt 0.0316455699503422 0
vt 0.0316455699503422 0.0316455699503422
vt 0.158227846026421 0
vt 0.158227846026421 0.0316455699503422
vt 0.0949367061257362 0
vt 0.0949367061257362 0.0316455699503422
vt 0.0316455699503422 0.0936490595340729
vt 0.0316455699503422 0.125294625759125
vt 0.983120024204254 0.0936490595340729
vt 0.983120024204254 0.125294625759125
vt 0.150579869747162 0.0936490595340729
vt 0.269514173269272 0.0936490595340729
vt 0.388448476791382 0.0936490595340729
vt 0.507382810115814 0.0936490595340729
vt 0.626317083835602 0.0936490595340729
vt 0.745251417160034 0.0936490595340729
vt 0.864185690879822 0.0936490595340729
vt 0.864185690879822 0.125294625759125
vt 0.745251417160034 0.125294625759125
vt 0.626317083835602 0.125294625759125
vt 0.507382810115814 0.125294625759125
vt 0.388448476791382 0.125294625759125
vt 0.269514173269272 0.125294625759125
vt 0.150579869747162 0.125294625759125
vt 0.0411249063909054 0.251855075359344
vt 0.159616261720657 0.243943691253662
vt 0.278107613325119 0.236032292246819
vt 0.396599024534225 0.228120908141136
vt 0.515090346336365 0.220209509134293
vt 0.633581757545471 0.21229812502861
vt 0.752073109149933 0.204386726021767
vt 0.870564460754395 0.196475341916084
vt 0.989055871963501 0.188563942909241
vt 0.989055871963501 0.251855075359344
vt 0.989055871963501 0.315146207809448
vt 0.870564460754395 0.307234823703766
vt 0.752073109149933 0.299323439598084
vt 0.633581757545471 0.291412055492401
vt 0.515090346336365 0.283500641584396
vt 0.396599024534225 0.275589257478714
vt 0.278107613325119 0.267677873373032
vt 0.159616261720657 0.259766489267349
vn 0 1 0
vn 0 1 0
vn 0 1 0
vn 0 1 0
vn 0 1 0
vn 0 1 0
vn 0 1 0
vn 0 1 0
vn 0 1 0
vn 0 1 0
vn 0 1 0
vn 0 1 0
vn 0 1 0
vn 0 1 0
vn 0 1 0
vn 0 1 0
vn 0 1 0
vn 0 1 0
vn -0.997785151004791 0 -0.0665190070867538
vn -0.997785151004791 0 -0.0665190070867538
vn -0.997785151004791 0 -0.0665190070867538
vn -0.997785151004791 0 -0.0665190070867538
vn -0.997785151004791 0 -0.0665190070867538
vn -0.997785151004791 0 -0.0665190070867538
vn -0.997785151004791 0 -0.0665190070867538
vn -0.997785151004791 0 -0.0665190070867538
vn -0.997785151004791 0 -0.0665190070867538
vn -0.997785151004791 0 -0.0665190070867538
vn -0.997785151004791 0 -0.0665190070867538
vn -0.997785151004791 0 -0.0665190070867538
vn -0.997785151004791 0 -0.0665190070867538
vn -0.997785151004791 0 -0.0665190070867538
vn -0.997785151004791 0 -0.0665190070867538
vn -0.997785151004791 0 -0.0665190070867538
vn -0.997785151004791 0 -0.0665190070867538
vn -0.997785151004791 0 -0.0665190070867538
vn 0 0 1
vn 0 0 1
vn 0 0 1
vn 0 0 1
vn 0 0 1
vn 0 0 1
vn 0.997785151004791 0 -0.0665190070867538
vn 0.997785151004791 0 -0.0665190070867538
vn 0.997785151004791 0 -0.0665190070867538
vn 0.997785151004791 0 -0.0665190070867538
vn 0.997785151004791 0 -0.0665190070867538
vn 0.997785151004791 0 -0.0665190070867538
vn 0.997785151004791 0 -0.0665190070867538
vn 0.997785151004791 0 -0.0665190070867538
vn 0.997785151004791 0 -0.0665190070867538
vn 0.997785151004791 0 -0.0665190070867538
vn 0.997785151004791 0 -0.0665190070867538
vn 0.997785151004791 0 -0.0665190070867538
vn 0.997785151004791 0 -0.0665190070867538
vn 0.997785151004791 0 -0.0665190070867538
vn 0.997785151004791 0 -0.0665190070867538
vn 0.997785151004791 0 -0.0665190070867538
vn 0.997785151004791 0 -0.0665190070867538
vn 0.997785151004791 0 -0.0665190070867538
vn 0 -1 0
vn 0 -1 0
vn 0 -1 0
vn 0 -1 0
vn 0 -1 0
vn 0 -1 0
vn 0 -1 0
vn 0 -1 0
vn 0 -1 0
vn 0 -1 0
vn 0 -1 0
vn 0 -1 0
vn 0 -1 0
vn 0 -1 0
vn 0 -1 0
vn 0 -1 0
vn 0 -1 0
vn 0 -1 0
f 8/8/8 9/9/9 10/10/10 11/11/11 12/12/12 13/13/13 14/14/14 15/15/15 \
16/16/16 17/17/17 18/18/18 1/1/1 2/2/2 3/3/3 4/4/4 5/5/5 6/6/6 \
7/7/7
f 36/36/36 20/20/20 19/19/19 23/23/23 24/24/24 25/25/25 26/26/26 \
27/27/27 28/28/28 29/29/29 21/21/21 22/22/22 30/30/30 31/31/31 \
32/32/32 33/33/33 34/34/34 35/35/35
f 38/38/38 37/37/37 41/41/41 39/39/39 40/40/40 42/42/42
f 60/60/60 44/44/44 43/43/43 47/47/47 48/48/48 49/49/49 50/50/50 \
51/51/51 52/52/52 53/53/53 45/45/45 46/46/46 54/54/54 55/55/55 \
56/56/56 57/57/57 58/58/58 59/59/59
f 70/70/70 69/69/69 68/68/68 67/67/67 66/66/66 65/65/65 64/64/64 \
63/63/63 62/62/62 61/61/61 78/78/78 77/77/77 76/76/76 75/75/75 \
74/74/74 73/73/73 72/72/72 71/71/71
v 0 0 -15
v -0.666666686534882 0 -5
v -1.33333337306976 0 5
v -2 0 15
v 2 0 15
v 1.33333337306976 0 5
v 0.666666686534882 0 -5
vt 0.5 0.990196049213409
vt 0.336601316928864 0.663398683071136
vt 0.173202618956566 0.336601316928864
vt 0.00980392191559076 0.00980392191559076
vt 0.990196049213409 0.00980392191559076
vt 0.826797366142273 0.336601316928864
vt 0.663398683071136 0.663398683071136
vn 0 1 0
vn 0 1 0
vn 0 1 0
vn 0 1 0
vn 0 1 0
vn 0 1 0
vn 0 1 0
f 81/81/81 82/82/82 83/83/83 84/84/84 85/85/85 79/79/79 80/80/80
v 0 0 -15
v -2 0 15
v 2 0 15
cstype bspline
deg 1
curv 0 64.1331855134916 86 87 88 86
parm u 0 0 30.0665927567458 34.0665927567458 64.1331855134916 \
64.1331855134916
end
